<svg id="Icons" xmlns="http://www.w3.org/2000/svg" viewBox="0 0 215 215"><defs><style>.cls-1{fill:#fff;}</style></defs><g id="Facebook"><path id="Background" d="M1108,103.2c0-48.65,0-73,15.11-88.09S1162.55,0,1211.2,0h8.6c48.65,0,73,0,88.09,15.11S1323,54.55,1323,103.2v8.6c0,48.65,0,73-15.11,88.09S1268.45,215,1219.8,215h-8.6c-48.65,0-73,0-88.09-15.11S1108,160.45,1108,111.8Z" transform="translate(-1108)"/><path id="Facebook-2" data-name="Facebook" class="cls-1" d="M1224.55,117.27H1244L1247.66,93h-23.11V77.3c0-6.64,3.23-13.1,13.58-13.1h10.51V43.56A127.3,127.3,0,0,0,1230,41.92c-19,0-31.48,11.61-31.48,32.63V93h-21.17v24.24h21.17v58.6h26Z" transform="translate(-1108)"/></g></svg>