<svg fill="#000000" xmlns="http://www.w3.org/2000/svg"  viewBox="0 0 32 32" width="64px" height="64px"><path d="M 15.5 4 C 11.364 4 8 8.548625 8 14.140625 C 8 16.865108 8.8086552 19.327357 10.107422 21.150391 A 1.75 1.75 0 0 0 11.75 23.5 A 1.75 1.75 0 1 0 11.75 20 A 1.75 1.75 0 0 0 11.697266 20.001953 C 10.653587 18.520785 10 16.443926 10 14.140625 C 10 9.651625 12.468 6 15.5 6 C 17.67 6 19.545453 7.8740312 20.439453 10.582031 C 21.211453 10.810031 21.977609 11.098031 22.724609 11.457031 C 21.851609 7.1650313 18.948 4 15.5 4 z M 14.25 11.75 A 1.75 1.75 0 1 0 14.25 15.25 A 1.75 1.75 0 0 0 15.904297 14.066406 C 17.79992 13.840068 20.031164 14.393321 22.066406 15.644531 C 25.915406 18.012531 27.957391 22.245672 26.525391 24.888672 C 26.021391 25.817672 25.134078 26.474062 23.955078 26.789062 C 22.740078 27.114062 21.324766 27.050344 19.884766 26.652344 C 19.328766 27.185344 18.710687 27.678531 18.054688 28.144531 C 19.471688 28.702531 20.920156 28.998047 22.285156 28.998047 C 23.046156 28.998047 23.781703 28.908609 24.470703 28.724609 C 26.192703 28.263609 27.51025 27.26775 28.28125 25.84375 C 30.26825 22.17475 27.998281 16.944453 23.113281 13.939453 C 20.587601 12.384843 17.739937 11.736844 15.322266 12.119141 A 1.75 1.75 0 0 0 14.25 11.75 z M 6.1367188 16.138672 C 3.2327188 19.112672 2.1528437 22.95975 3.7148438 25.84375 C 4.4868438 27.26775 5.8033906 28.263609 7.5253906 28.724609 C 8.2143906 28.909609 8.9518906 28.998047 9.7128906 28.998047 C 11.788891 28.998047 14.061188 28.326547 16.117188 27.060547 C 18.756959 25.437163 20.622272 23.164286 21.474609 20.839844 A 1.75 1.75 0 0 0 20.75 17.5 A 1.75 1.75 0 0 0 19.451172 20.421875 C 18.691901 22.248213 17.154291 24.075966 15.072266 25.357422 C 12.720266 26.803422 10.092969 27.339016 8.0429688 26.791016 C 6.8639687 26.476016 5.9756563 25.818625 5.4726562 24.890625 C 4.5316563 23.153625 5.0975937 20.731563 6.6835938 18.601562 C 6.4375937 17.816562 6.2497188 16.994672 6.1367188 16.138672 z"/></svg>