<svg fill="#000000" xmlns="http://www.w3.org/2000/svg"  viewBox="0 0 32 32" width="64px" height="64px"><path d="M 4 4 L 4 5 L 4 28 L 28 28 L 28 4 L 4 4 z M 6 6 L 26 6 L 26 26 L 6 26 L 6 6 z M 10.324219 14 L 10.324219 15.873047 L 12.878906 15.873047 L 12.878906 24.015625 L 14.980469 24.015625 L 14.980469 15.873047 L 17.587891 15.873047 L 17.587891 14 L 10.324219 14 z M 20.703125 14.162109 C 19.245125 14.268484 17.787109 14.878937 17.787109 16.898438 C 17.787109 19.869438 21.789062 19.870938 21.789062 21.210938 C 21.789062 21.337937 21.844641 22.261719 20.431641 22.261719 C 19.018641 22.261719 17.841797 21.373047 17.841797 21.373047 L 17.841797 23.527344 C 17.841797 23.527344 24 25.519344 24 21.027344 C 24 18.111344 19.960938 18.257594 19.960938 16.808594 C 19.960937 16.246594 20.359844 15.720703 21.464844 15.720703 C 22.569844 15.720703 23.546875 16.373047 23.546875 16.373047 L 23.619141 14.453125 C 23.619141 14.453125 22.161125 14.055734 20.703125 14.162109 z"/></svg>