<svg id="Icons" xmlns="http://www.w3.org/2000/svg" viewBox="0 0 215 215"><defs><style>.cls-1{fill:#fff;}</style></defs><g id="LinkedIn"><path id="Background" d="M1385,657.2c0-48.65,0-73,15.11-88.09S1439.55,554,1488.2,554h8.6c48.65,0,73,0,88.09,15.11S1600,608.55,1600,657.2v8.6c0,48.65,0,73-15.11,88.09S1545.45,769,1496.8,769h-8.6c-48.65,0-73,0-88.09-15.11S1385,714.45,1385,665.8Z" transform="translate(-1385 -554)"/><g id="LinkedIn-2" data-name="LinkedIn"><rect id="LinkedIn-3" data-name="LinkedIn" class="cls-1" x="57.82" y="83.44" width="22.81" height="73.58"/><path id="LinkedIn-4" data-name="LinkedIn" class="cls-1" d="M1523.76,636c-8.83-.74-16.92,4.41-21.34,11.77v-10.3h-22.07V711h22.81V674.23c0-9.57,2.2-19.13,14-19.13s11.77,11,11.77,19.86V711h22.81l-.74-39.74C1551,651.42,1547.3,636,1523.76,636Z" transform="translate(-1385 -554)"/><circle id="LinkedIn-5" data-name="LinkedIn" class="cls-1" cx="68.86" cy="59.89" r="13.24"/></g></g></svg>