<svg id="Icons" xmlns="http://www.w3.org/2000/svg" viewBox="0 0 215 215"><defs><style>.cls-1{fill:#fff;}</style></defs><g id="Mail.ru"><path id="Background" d="M554,380.2c0-48.65,0-73,15.11-88.09S608.55,277,657.2,277h8.6c48.65,0,73,0,88.09,15.11S769,331.55,769,380.2v8.6c0,48.65,0,73-15.11,88.09S714.45,492,665.8,492h-8.6c-48.65,0-73,0-88.09-15.11S554,437.45,554,388.8Z" transform="translate(-554 -277)"/><path id="Mail.ru-2" data-name="Mail.ru" class="cls-1" d="M725.33,384.6c0,21.73-10.17,31.9-23,31.9a20.71,20.71,0,0,1-17.57-9.71,31.72,31.72,0,1,1,9.09-22.19v10.32c0,5.24,3.7,8.94,8.48,8.94,5.7,0,10.33-4.77,10.33-19.26a50.82,50.82,0,1,0-23.43,42.54l8.32,9.55A62.64,62.64,0,0,1,662,447.63a63.19,63.19,0,1,1,63.34-63Zm-63.19,19.26a19.27,19.27,0,1,0-19.26-19.26A19.27,19.27,0,0,0,662.14,403.86Z" transform="translate(-554 -277)"/></g></svg>